<svg width="1179" height="500" viewBox="0 0 1179 500" fill="none" xmlns="http://www.w3.org/2000/svg">
<g clip-path="url(#clip0_1_2)">
<rect width="1179" height="500" rx="100" fill="#628DD1"/>
<path d="M196.334 361H83.1992C82.2878 361 81.832 360.43 81.832 359.291L82.1738 118.837C82.1738 117.925 82.6296 117.47 83.541 117.47H195.992C196.904 117.47 197.359 118.039 197.359 119.179V158.314C197.359 159.226 196.904 159.682 195.992 159.682H124.215V214.369H195.992C196.904 214.369 197.359 214.825 197.359 215.736L197.701 255.385C197.701 256.296 197.245 256.752 196.334 256.752H124.215V317.934H196.334C197.245 317.934 197.701 318.503 197.701 319.643V359.633C197.701 360.544 197.245 361 196.334 361ZM293.233 360.658L230.514 361C229.374 361 228.805 360.43 228.805 359.291L229.488 118.837C229.488 117.925 229.944 117.47 230.855 117.47L296.31 117.128C309.298 116.786 321.033 119.748 331.515 126.015C342.11 132.281 350.541 140.769 356.808 151.479C363.188 162.074 366.378 173.809 366.378 186.684V287.172C366.378 300.616 363.131 312.921 356.637 324.086C350.029 335.137 341.256 343.967 330.318 350.575C319.381 357.069 307.019 360.43 293.233 360.658ZM296.31 158.998L271.871 159.34L271.529 317.934H293.233C301.892 317.934 309.184 314.914 315.108 308.876C321.033 302.838 323.995 295.603 323.995 287.172V186.342C323.995 178.936 321.261 172.499 315.792 167.03C310.323 161.448 303.829 158.77 296.31 158.998ZM458.663 364.418C446.244 364.418 434.794 361.228 424.312 354.848C413.945 348.467 405.571 339.979 399.19 329.384C392.924 318.674 389.791 306.939 389.791 294.179L390.133 183.266C390.133 170.277 393.266 158.599 399.532 148.231C405.685 137.75 414.002 129.376 424.483 123.109C434.965 116.729 446.358 113.539 458.663 113.539C471.424 113.539 482.874 116.672 493.014 122.938C503.268 129.205 511.471 137.636 517.623 148.231C523.889 158.713 527.022 170.391 527.022 183.266L527.364 294.179C527.364 306.939 524.288 318.617 518.136 329.213C511.869 339.923 503.552 348.467 493.185 354.848C482.817 361.228 471.31 364.418 458.663 364.418ZM458.663 322.206C465.727 322.206 471.879 319.358 477.12 313.661C482.361 307.851 484.981 301.356 484.981 294.179L484.64 183.266C484.64 175.518 482.19 168.967 477.291 163.612C472.392 158.257 466.183 155.58 458.663 155.58C451.485 155.58 445.333 158.201 440.206 163.441C435.079 168.682 432.516 175.29 432.516 183.266V294.179C432.516 301.812 435.079 308.42 440.206 314.003C445.333 319.472 451.485 322.206 458.663 322.206Z" fill="white"/>
<path d="M661.469 279.906L644.266 280C643.953 280 643.797 279.844 643.797 279.531L643.984 213.578C643.984 213.328 644.109 213.203 644.359 213.203L662.312 213.109C665.875 213.016 669.094 213.828 671.969 215.547C674.875 217.266 677.188 219.594 678.906 222.531C680.656 225.438 681.531 228.656 681.531 232.188V259.75C681.531 263.438 680.641 266.812 678.859 269.875C677.047 272.906 674.641 275.328 671.641 277.141C668.641 278.922 665.25 279.844 661.469 279.906ZM662.312 224.594L655.609 224.688L655.516 268.188H661.469C663.844 268.188 665.844 267.359 667.469 265.703C669.094 264.047 669.906 262.062 669.906 259.75V232.094C669.906 230.062 669.156 228.297 667.656 226.797C666.156 225.266 664.375 224.531 662.312 224.594ZM722.312 280H686.5C686.188 280 686.031 279.844 686.031 279.531L686.125 269.078L709.656 224.125H687.391C687.109 224.125 686.969 224 686.969 223.75V213.672C686.969 213.359 687.109 213.203 687.391 213.203H722.125C722.438 213.203 722.594 213.359 722.594 213.672V224.031L699.203 268.75H722.312C722.562 268.75 722.688 268.922 722.688 269.266L722.781 279.531C722.781 279.844 722.625 280 722.312 280ZM740.172 280H729.297C728.984 280 728.828 279.844 728.828 279.531L728.922 213.578C728.922 213.328 729.047 213.203 729.297 213.203H740.078C740.328 213.203 740.453 213.328 740.453 213.578L740.547 279.531C740.547 279.844 740.422 280 740.172 280ZM780.391 280H749.359C749.109 280 748.984 279.844 748.984 279.531L749.078 213.578C749.078 213.328 749.203 213.203 749.453 213.203H780.297C780.547 213.203 780.672 213.359 780.672 213.672V224.406C780.672 224.656 780.547 224.781 780.297 224.781H760.609V239.781H780.297C780.547 239.781 780.672 239.906 780.672 240.156L780.766 251.031C780.766 251.281 780.641 251.406 780.391 251.406H760.609V268.188H780.391C780.641 268.188 780.766 268.344 780.766 268.656V279.625C780.766 279.875 780.641 280 780.391 280ZM799.75 280H790.141C789.641 280 789.391 279.781 789.391 279.344L789.297 213.953C789.297 213.453 789.547 213.203 790.047 213.203H798.719L814.938 251.031L814.469 213.953C814.469 213.453 814.75 213.203 815.312 213.203H824.828C825.203 213.203 825.391 213.453 825.391 213.953L825.484 279.438C825.484 279.812 825.328 280 825.016 280H816.578L799.938 244.656L800.641 279.25C800.641 279.75 800.344 280 799.75 280ZM844.281 280H834.672C834.172 280 833.922 279.781 833.922 279.344L833.828 213.953C833.828 213.453 834.078 213.203 834.578 213.203H843.25L859.469 251.031L859 213.953C859 213.453 859.281 213.203 859.844 213.203H869.359C869.734 213.203 869.922 213.453 869.922 213.953L870.016 279.438C870.016 279.812 869.859 280 869.547 280H861.109L844.469 244.656L845.172 279.25C845.172 279.75 844.875 280 844.281 280ZM889.703 280H878.828C878.516 280 878.359 279.844 878.359 279.531L878.453 213.578C878.453 213.328 878.578 213.203 878.828 213.203H889.609C889.859 213.203 889.984 213.328 889.984 213.578L890.078 279.531C890.078 279.844 889.953 280 889.703 280ZM909.766 280H898.891C898.641 280 898.516 279.844 898.516 279.531L898.703 213.672C898.703 213.359 898.828 213.203 899.078 213.203H909.859C910.109 213.203 910.234 213.359 910.234 213.672V236.406L925.281 213.578C925.531 213.328 925.766 213.203 925.984 213.203H937C937.281 213.203 937.344 213.328 937.188 213.578L920.594 240.062L939.203 279.625C939.359 279.875 939.203 280 938.734 280H927.016C926.703 280 926.516 279.875 926.453 279.625L913.469 251.406L910.141 256.656V279.531C910.141 279.844 910.016 280 909.766 280Z" fill="white"/>
<path d="M675.203 191H644.172C643.922 191 643.797 190.844 643.797 190.531L643.891 124.578C643.891 124.328 644.016 124.203 644.266 124.203H675.109C675.359 124.203 675.484 124.359 675.484 124.672V135.406C675.484 135.656 675.359 135.781 675.109 135.781H655.422V150.781H675.109C675.359 150.781 675.484 150.906 675.484 151.156L675.578 162.031C675.578 162.281 675.453 162.406 675.203 162.406H655.422V179.188H675.203C675.453 179.188 675.578 179.344 675.578 179.656V190.625C675.578 190.875 675.453 191 675.203 191ZM715.516 191H684.484C684.234 191 684.109 190.844 684.109 190.531L684.203 124.672C684.203 124.359 684.359 124.203 684.672 124.203H695.359C695.672 124.203 695.828 124.359 695.828 124.672L695.734 179.188H715.516C715.828 179.188 715.984 179.344 715.984 179.656V190.531C715.984 190.844 715.828 191 715.516 191ZM753.672 191H722.641C722.391 191 722.266 190.844 722.266 190.531L722.359 124.578C722.359 124.328 722.484 124.203 722.734 124.203H753.578C753.828 124.203 753.953 124.359 753.953 124.672V135.406C753.953 135.656 753.828 135.781 753.578 135.781H733.891V150.781H753.578C753.828 150.781 753.953 150.906 753.953 151.156L754.047 162.031C754.047 162.281 753.922 162.406 753.672 162.406H733.891V179.188H753.672C753.922 179.188 754.047 179.344 754.047 179.656V190.625C754.047 190.875 753.922 191 753.672 191ZM773.828 191H762.953C762.703 191 762.578 190.844 762.578 190.531L762.766 124.672C762.766 124.359 762.891 124.203 763.141 124.203H773.922C774.172 124.203 774.297 124.359 774.297 124.672V147.406L789.344 124.578C789.594 124.328 789.828 124.203 790.047 124.203H801.062C801.344 124.203 801.406 124.328 801.25 124.578L784.656 151.062L803.266 190.625C803.422 190.875 803.266 191 802.797 191H791.078C790.766 191 790.578 190.875 790.516 190.625L777.531 162.406L774.203 167.656V190.531C774.203 190.844 774.078 191 773.828 191ZM828.062 191H817.234C816.953 191 816.812 190.844 816.812 190.531V135.781H804.344C804.031 135.781 803.875 135.625 803.875 135.312L803.969 124.578C803.969 124.328 804.094 124.203 804.344 124.203H840.812C841.156 124.203 841.328 124.328 841.328 124.578V135.312C841.328 135.625 841.203 135.781 840.953 135.781H828.344L828.438 190.531C828.438 190.844 828.312 191 828.062 191ZM857.266 191H846.391C846.141 191 846.016 190.844 846.016 190.531L846.203 124.578C846.203 124.328 846.328 124.203 846.578 124.203H865.984C869.453 124.203 872.641 125.047 875.547 126.734C878.453 128.422 880.766 130.688 882.484 133.531C884.234 136.375 885.109 139.594 885.109 143.188C885.109 145.531 884.75 147.656 884.031 149.562C883.312 151.469 882.469 153.078 881.5 154.391C880.562 155.703 879.703 156.672 878.922 157.297C882.391 161.141 884.125 165.656 884.125 170.844L884.219 190.531C884.219 190.844 884.062 191 883.75 191H872.875C872.625 191 872.5 190.906 872.5 190.719V170.844C872.5 168.531 871.688 166.531 870.062 164.844C868.438 163.156 866.438 162.312 864.062 162.312H857.734L857.641 190.531C857.641 190.844 857.516 191 857.266 191ZM865.984 135.688H857.734V150.781H865.984C867.953 150.781 869.703 150.047 871.234 148.578C872.797 147.109 873.578 145.312 873.578 143.188C873.578 141.156 872.828 139.406 871.328 137.938C869.828 136.438 868.047 135.688 865.984 135.688ZM910.094 191.938C906.688 191.938 903.547 191.062 900.672 189.312C897.828 187.562 895.531 185.234 893.781 182.328C892.062 179.391 891.203 176.172 891.203 172.672L891.297 142.25C891.297 138.688 892.156 135.484 893.875 132.641C895.562 129.766 897.844 127.469 900.719 125.75C903.594 124 906.719 123.125 910.094 123.125C913.594 123.125 916.734 123.984 919.516 125.703C922.328 127.422 924.578 129.734 926.266 132.641C927.984 135.516 928.844 138.719 928.844 142.25L928.938 172.672C928.938 176.172 928.094 179.375 926.406 182.281C924.688 185.219 922.406 187.562 919.562 189.312C916.719 191.062 913.562 191.938 910.094 191.938ZM910.094 180.359C912.031 180.359 913.719 179.578 915.156 178.016C916.594 176.422 917.312 174.641 917.312 172.672L917.219 142.25C917.219 140.125 916.547 138.328 915.203 136.859C913.859 135.391 912.156 134.656 910.094 134.656C908.125 134.656 906.438 135.375 905.031 136.812C903.625 138.25 902.922 140.062 902.922 142.25V172.672C902.922 174.766 903.625 176.578 905.031 178.109C906.438 179.609 908.125 180.359 910.094 180.359ZM946.656 191H937.047C936.547 191 936.297 190.781 936.297 190.344L936.203 124.953C936.203 124.453 936.453 124.203 936.953 124.203H945.625L961.844 162.031L961.375 124.953C961.375 124.453 961.656 124.203 962.219 124.203H971.734C972.109 124.203 972.297 124.453 972.297 124.953L972.391 190.438C972.391 190.812 972.234 191 971.922 191H963.484L946.844 155.656L947.547 190.25C947.547 190.75 947.25 191 946.656 191ZM992.078 191H981.203C980.891 191 980.734 190.844 980.734 190.531L980.828 124.578C980.828 124.328 980.953 124.203 981.203 124.203H991.984C992.234 124.203 992.359 124.328 992.359 124.578L992.453 190.531C992.453 190.844 992.328 191 992.078 191ZM1018.56 191.938C1015.09 191.938 1011.92 191.062 1009.05 189.312C1006.2 187.562 1003.94 185.219 1002.25 182.281C1000.59 179.312 999.766 176.016 999.766 172.391L999.859 142.438C999.859 138.875 1000.67 135.656 1002.3 132.781C1003.92 129.875 1006.16 127.547 1009 125.797C1011.88 124.016 1015.06 123.125 1018.56 123.125C1022.12 123.125 1025.3 123.984 1028.08 125.703C1030.89 127.422 1033.12 129.75 1034.78 132.688C1036.47 135.594 1037.31 138.844 1037.31 142.438V146.844C1037.31 147.094 1037.19 147.219 1036.94 147.219H1026.16C1025.91 147.219 1025.78 147.094 1025.78 146.844V142.438C1025.78 140.312 1025.09 138.484 1023.72 136.953C1022.34 135.422 1020.62 134.656 1018.56 134.656C1016.28 134.656 1014.53 135.438 1013.31 137C1012.09 138.562 1011.48 140.375 1011.48 142.438V172.391C1011.48 174.734 1012.17 176.656 1013.55 178.156C1014.92 179.625 1016.59 180.359 1018.56 180.359C1020.62 180.359 1022.34 179.547 1023.72 177.922C1025.09 176.266 1025.78 174.422 1025.78 172.391V167.938C1025.78 167.688 1025.91 167.562 1026.16 167.562H1037.03C1037.28 167.562 1037.41 167.688 1037.41 167.938V172.391C1037.41 175.984 1036.56 179.266 1034.88 182.234C1033.16 185.172 1030.89 187.531 1028.08 189.312C1025.27 191.062 1022.09 191.938 1018.56 191.938ZM1077.62 191H1041.81C1041.5 191 1041.34 190.844 1041.34 190.531L1041.44 180.078L1064.97 135.125H1042.7C1042.42 135.125 1042.28 135 1042.28 134.75V124.672C1042.28 124.359 1042.42 124.203 1042.7 124.203H1077.44C1077.75 124.203 1077.91 124.359 1077.91 124.672V135.031L1054.52 179.75H1077.62C1077.88 179.75 1078 179.922 1078 180.266L1078.09 190.531C1078.09 190.844 1077.94 191 1077.62 191ZM1094.59 191H1084.98C1084.48 191 1084.23 190.781 1084.23 190.344L1084.14 124.953C1084.14 124.453 1084.39 124.203 1084.89 124.203H1093.56L1109.78 162.031L1109.31 124.953C1109.31 124.453 1109.59 124.203 1110.16 124.203H1119.67C1120.05 124.203 1120.23 124.453 1120.23 124.953L1120.33 190.438C1120.33 190.812 1120.17 191 1119.86 191H1111.42L1094.78 155.656L1095.48 190.25C1095.48 190.75 1095.19 191 1094.59 191ZM1146.72 191H1135.7C1135.48 191 1135.38 190.875 1135.38 190.625L1135.47 163.344L1122.62 124.578C1122.56 124.328 1122.66 124.203 1122.91 124.203H1133.59C1133.91 124.203 1134.09 124.328 1134.16 124.578L1141.23 150.406L1148.45 124.578C1148.52 124.328 1148.67 124.203 1148.92 124.203H1159.7C1159.95 124.203 1160.05 124.328 1159.98 124.578L1147 162.969L1147.09 190.625C1147.09 190.875 1146.97 191 1146.72 191Z" fill="white"/>
<path d="M661.562 371.938C658.156 371.938 655.016 371.062 652.141 369.312C649.297 367.562 647 365.234 645.25 362.328C643.531 359.391 642.672 356.172 642.672 352.672L642.766 322.25C642.766 318.688 643.625 315.484 645.344 312.641C647.031 309.766 649.312 307.469 652.188 305.75C655.062 304 658.188 303.125 661.562 303.125C665.062 303.125 668.203 303.984 670.984 305.703C673.797 307.422 676.047 309.734 677.734 312.641C679.453 315.516 680.312 318.719 680.312 322.25L680.406 352.672C680.406 356.172 679.562 359.375 677.875 362.281C676.156 365.219 673.875 367.562 671.031 369.312C668.188 371.062 665.031 371.938 661.562 371.938ZM661.562 360.359C663.5 360.359 665.188 359.578 666.625 358.016C668.062 356.422 668.781 354.641 668.781 352.672L668.688 322.25C668.688 320.125 668.016 318.328 666.672 316.859C665.328 315.391 663.625 314.656 661.562 314.656C659.594 314.656 657.906 315.375 656.5 316.812C655.094 318.25 654.391 320.062 654.391 322.25V352.672C654.391 354.766 655.094 356.578 656.5 358.109C657.906 359.609 659.594 360.359 661.562 360.359ZM705.344 371.938C701.875 371.938 698.703 371.062 695.828 369.312C692.984 367.562 690.719 365.219 689.031 362.281C687.375 359.312 686.547 356.016 686.547 352.391L686.641 322.438C686.641 318.875 687.453 315.656 689.078 312.781C690.703 309.875 692.938 307.547 695.781 305.797C698.656 304.016 701.844 303.125 705.344 303.125C708.906 303.125 712.078 303.984 714.859 305.703C717.672 307.422 719.906 309.75 721.562 312.688C723.25 315.594 724.094 318.844 724.094 322.438V326.844C724.094 327.094 723.969 327.219 723.719 327.219H712.938C712.688 327.219 712.562 327.094 712.562 326.844V322.438C712.562 320.312 711.875 318.484 710.5 316.953C709.125 315.422 707.406 314.656 705.344 314.656C703.062 314.656 701.312 315.438 700.094 317C698.875 318.562 698.266 320.375 698.266 322.438V352.391C698.266 354.734 698.953 356.656 700.328 358.156C701.703 359.625 703.375 360.359 705.344 360.359C707.406 360.359 709.125 359.547 710.5 357.922C711.875 356.266 712.562 354.422 712.562 352.391V347.938C712.562 347.688 712.688 347.562 712.938 347.562H723.812C724.062 347.562 724.188 347.688 724.188 347.938V352.391C724.188 355.984 723.344 359.266 721.656 362.234C719.938 365.172 717.672 367.531 714.859 369.312C712.047 371.062 708.875 371.938 705.344 371.938ZM762.578 371H731.547C731.297 371 731.172 370.844 731.172 370.531L731.266 304.578C731.266 304.328 731.391 304.203 731.641 304.203H762.484C762.734 304.203 762.859 304.359 762.859 304.672V315.406C762.859 315.656 762.734 315.781 762.484 315.781H742.797V330.781H762.484C762.734 330.781 762.859 330.906 762.859 331.156L762.953 342.031C762.953 342.281 762.828 342.406 762.578 342.406H742.797V359.188H762.578C762.828 359.188 762.953 359.344 762.953 359.656V370.625C762.953 370.875 762.828 371 762.578 371ZM781.938 371H772.328C771.828 371 771.578 370.781 771.578 370.344L771.484 304.953C771.484 304.453 771.734 304.203 772.234 304.203H780.906L797.125 342.031L796.656 304.953C796.656 304.453 796.938 304.203 797.5 304.203H807.016C807.391 304.203 807.578 304.453 807.578 304.953L807.672 370.438C807.672 370.812 807.516 371 807.203 371H798.766L782.125 335.656L782.828 370.25C782.828 370.75 782.531 371 781.938 371Z" fill="white"/>
<path d="M590 63L590 437" stroke="white" stroke-width="10" stroke-linecap="round"/>
</g>
<defs>
<clipPath id="clip0_1_2">
<rect width="1179" height="500" rx="100" fill="white"/>
</clipPath>
</defs>
</svg>
